<?xml version="1.0" standalone="no"?>
<!DOCTYPE svg PUBLIC "-//W3C//DTD SVG 20010904//EN"
 "http://www.w3.org/TR/2001/REC-SVG-20010904/DTD/svg10.dtd">
<svg version="1.0" xmlns="http://www.w3.org/2000/svg"
 width="1000.000000pt" height="1000.000000pt" viewBox="0 0 1000.000000 1000.000000"
 preserveAspectRatio="xMidYMid meet">
<metadata>
Created by potrace 1.14, written by Peter Selinger 2001-2017
</metadata>
<g transform="translate(0.000000,1000.000000) scale(0.100000,-0.100000)"
fill="#000000" stroke="none">
<path d="M4029 9217 c-168 -74 -253 -144 -387 -320 -64 -84 -69 -88 -97 -81
-121 26 -226 30 -420 14 -313 -27 -655 -153 -962 -356 -187 -122 -253 -176
-384 -311 -182 -187 -301 -353 -378 -528 -62 -140 -80 -326 -41 -426 20 -53
55 -99 75 -99 6 0 22 -11 34 -24 28 -30 146 -88 226 -112 42 -12 96 -18 180
-18 l120 -1 -12 -90 c-7 -49 -15 -214 -19 -365 -10 -393 10 -593 82 -857 35
-130 50 -167 119 -304 23 -47 48 -110 54 -140 15 -77 49 -299 62 -404 18 -143
-9 -433 -61 -670 -38 -174 -142 -447 -222 -585 -91 -155 -166 -297 -193 -364
-14 -32 -55 -108 -91 -169 -136 -224 -217 -462 -250 -732 -8 -66 -19 -130 -25
-142 -8 -15 -10 -86 -6 -230 4 -168 9 -223 26 -288 42 -158 125 -291 271 -436
85 -84 117 -127 178 -239 45 -82 122 -294 122 -336 0 -19 4 -25 18 -22 15 3
17 16 16 113 -1 197 -47 375 -192 735 -154 384 -174 500 -137 793 22 169 64
306 145 469 68 137 250 452 257 444 2 -2 -10 -27 -26 -55 -17 -28 -28 -51 -26
-51 3 0 -5 -17 -18 -38 -84 -132 -188 -444 -232 -694 -46 -258 17 -675 128
-843 44 -67 251 -222 382 -287 70 -34 125 -70 185 -123 165 -144 416 -238 695
-261 l80 -6 -41 43 c-68 72 -131 165 -178 263 -111 234 -90 339 142 706 105
167 193 334 222 422 20 61 25 68 49 68 43 0 94 18 154 54 l57 35 6 -27 c38
-174 107 -364 169 -466 25 -40 45 -78 45 -84 0 -26 96 -135 137 -155 l43 -21
38 36 c115 109 290 184 662 283 258 68 238 66 400 45 223 -30 266 -39 385 -77
149 -48 291 -105 405 -163 136 -69 131 -68 178 -15 22 25 55 75 75 113 43 83
125 304 147 396 l16 69 62 22 c49 18 64 20 72 10 6 -7 59 -46 117 -87 204
-140 385 -322 587 -588 150 -198 214 -315 240 -444 17 -80 6 -182 -23 -230
-13 -20 -19 -36 -14 -36 15 0 159 152 176 186 30 58 79 189 99 264 25 95 36
380 19 497 -13 90 -61 263 -88 320 -10 21 -17 50 -15 64 3 26 4 25 54 -27 28
-30 84 -80 125 -111 40 -31 82 -70 93 -88 27 -44 60 -176 60 -240 0 -61 -7
-84 -71 -230 -29 -67 -52 -138 -59 -180 -5 -38 -15 -100 -21 -136 -13 -84 -4
-186 27 -314 30 -119 81 -218 163 -318 73 -90 90 -105 129 -116 29 -9 31 -7
34 17 2 15 -2 43 -9 62 -35 102 0 249 112 469 74 146 146 257 250 386 239 299
292 439 282 747 -5 153 -9 189 -41 313 -66 267 -139 434 -272 628 -73 107
-251 332 -323 412 -20 22 -51 61 -69 87 -18 25 -38 52 -45 60 -7 7 -26 31 -42
53 -16 22 -48 61 -71 87 -56 64 -239 324 -301 428 -71 119 -129 237 -147 301
-37 128 -66 628 -66 1159 0 745 -53 1280 -159 1624 -17 54 -31 104 -31 111 0
52 -202 496 -290 640 -24 39 -58 94 -76 123 -18 29 -35 53 -39 52 -3 -1 -62
63 -129 143 -138 161 -180 200 -281 261 -307 186 -347 209 -474 266 -281 126
-543 202 -860 250 -280 42 -391 50 -716 50 l-280 0 -76 -33z m1242 -302 c27
-14 47 -30 44 -35 -3 -6 -1 -10 6 -10 7 0 10 -2 7 -5 -2 -3 -42 9 -89 25 -46
17 -71 28 -55 25 23 -5 27 -3 23 9 -9 22 6 20 64 -9z m-2384 -171 c-3 -3 -12
-4 -19 -1 -8 3 -5 6 6 6 11 1 17 -2 13 -5z m-69 -18 c-20 -6 -40 -14 -44 -18
-4 -5 -13 -8 -20 -8 -8 0 -38 -11 -69 -25 -30 -14 -69 -28 -87 -31 -18 -3 10
11 62 31 52 20 104 40 115 45 32 14 49 18 65 18 8 0 -2 -5 -22 -12z m-268 -95
c-8 -5 -26 -11 -40 -15 -21 -5 -20 -3 5 9 32 15 60 20 35 6z m-158 -66 c-78
-37 -109 -60 -190 -137 -53 -51 -125 -114 -159 -140 -58 -44 -82 -75 -49 -62
8 3 15 -3 18 -14 4 -15 -3 -24 -29 -36 -42 -20 -57 -20 -50 -1 17 42 -135 -71
-232 -174 -24 -25 -40 -39 -36 -31 57 104 379 400 573 525 80 51 208 114 232
114 8 0 -27 -20 -78 -44z m251 -182 c-59 -73 -79 -101 -235 -343 -214 -331
-272 -448 -317 -635 -12 -49 -31 -129 -43 -177 l-21 -87 -31 16 c-17 9 -65 50
-106 92 -81 81 -141 181 -166 275 -24 90 -19 116 35 188 45 60 226 236 331
323 111 92 556 393 583 395 5 0 -9 -21 -30 -47z m-523 -253 c-77 -71 -120 -97
-62 -37 18 18 29 37 25 42 -5 4 -1 6 7 3 8 -3 32 10 53 28 71 64 52 34 -23
-36z m4136 -784 c61 -129 98 -236 141 -401 33 -130 56 -275 43 -275 -4 0 -14
50 -24 111 -32 201 -91 395 -171 567 -24 50 -41 92 -39 92 3 0 25 -42 50 -94z
m505 -367 c12 -44 19 -82 16 -85 -3 -3 -31 92 -53 181 -4 18 -4 18 6 3 6 -10
20 -54 31 -99z m-1274 -1 c-3 -7 -5 -2 -5 12 0 14 2 19 5 13 2 -7 2 -19 0 -25z
m61 -108 c15 -25 50 -101 77 -170 46 -114 53 -125 78 -128 37 -4 42 13 30 111
-6 45 -9 84 -7 85 5 7 64 -104 80 -150 8 -27 19 -48 23 -48 19 0 36 103 36
222 0 70 3 119 6 109 7 -16 52 -53 166 -135 28 -20 85 -52 126 -71 l75 -35 16
-67 c24 -108 36 -213 42 -371 5 -128 4 -145 -9 -129 -22 27 -75 22 -89 -8 -6
-14 -18 -25 -27 -25 -9 0 -25 -7 -35 -15 -37 -28 -79 -19 -129 30 -26 24 -47
48 -47 52 0 4 16 41 36 81 20 40 37 85 37 100 2 62 -4 132 -11 132 -4 0 -23
-26 -41 -57 -47 -78 -99 -133 -125 -133 -16 1 -14 4 12 15 17 8 32 19 32 24 0
21 -87 35 -210 34 -125 -1 -203 -14 -325 -53 -33 -10 -78 -24 -100 -30 -22 -6
-46 -14 -53 -17 -7 -2 -11 -1 -10 4 1 4 -6 20 -16 36 -25 38 -78 38 -120 0
-17 -15 -5 0 27 33 32 33 76 72 97 85 64 39 49 54 -20 19 -22 -11 -46 -20 -54
-20 -9 0 -44 -27 -80 -61 -50 -46 -76 -81 -112 -152 l-46 -92 5 -105 c6 -109
25 -185 59 -233 12 -16 26 -26 34 -23 9 3 14 -1 14 -12 0 -9 9 -23 21 -30 24
-15 21 -17 44 28 26 50 96 140 145 184 50 45 166 121 216 142 48 20 193 44
269 44 81 0 276 -28 323 -46 21 -8 26 -12 12 -10 -74 13 -195 16 -270 6 -47
-6 -102 -11 -122 -10 -52 1 -83 -18 -169 -100 -40 -39 -84 -76 -98 -83 -31
-15 -80 -84 -81 -114 0 -41 24 -75 77 -109 35 -22 66 -34 88 -34 20 0 61 -9
93 -20 69 -25 199 -39 380 -42 15 0 44 1 65 2 33 3 44 -2 80 -37 81 -79 129
-86 180 -29 l29 31 -4 -85 c-7 -134 -66 -296 -184 -503 -97 -170 -302 -486
-411 -632 -105 -142 -469 -461 -583 -513 -105 -47 -221 -81 -332 -97 -117 -18
-172 -16 -323 10 -123 22 -144 26 -235 51 -178 48 -257 73 -315 99 -33 15 -84
36 -114 46 -114 40 -339 171 -438 257 -18 15 -91 122 -164 237 -192 306 -211
337 -199 330 10 -6 10 -6 -29 93 -12 29 -21 57 -21 62 0 16 29 -1 35 -21 4
-10 12 -25 20 -32 7 -7 28 -40 46 -73 39 -69 45 -77 84 -112 35 -33 61 -59 99
-103 30 -36 32 -36 186 -42 l55 -2 20 42 c19 40 23 42 61 43 31 0 56 9 95 36
29 19 77 46 105 60 60 28 98 69 126 133 10 24 28 56 39 73 12 16 27 59 35 96
14 64 13 69 -8 111 -34 67 -109 112 -195 118 -66 5 -69 4 -118 -33 -27 -21
-43 -30 -35 -20 45 57 270 195 316 196 12 0 27 6 33 14 6 7 34 16 61 20 86 11
163 56 96 56 -23 0 -24 2 -14 36 5 20 7 53 3 74 -8 50 -64 165 -99 208 -15 17
-23 32 -17 32 6 0 17 10 25 23 12 18 12 30 2 69 -6 26 -15 50 -19 54 -14 14
-7 47 17 75 21 25 35 68 48 153 2 14 19 24 58 36 64 20 165 40 201 40 40 0
164 46 227 83 31 19 72 38 89 42 44 9 63 39 63 100 0 44 3 51 26 62 21 10 26
9 30 -5 16 -55 30 -67 71 -66 44 1 99 34 175 105 28 27 38 45 38 68 0 17 -5
31 -11 31 -6 0 10 15 37 33 29 19 57 50 72 77 14 25 21 34 18 20 -4 -14 -14
-49 -22 -78 -21 -75 -16 -106 17 -110 40 -5 141 38 175 74 24 25 41 33 75 36
56 5 66 11 85 56 21 46 23 58 30 162 l6 84 20 -24 c11 -13 32 -45 46 -70z
m-2111 18 c-3 -7 -5 -2 -5 12 0 14 2 19 5 13 2 -7 2 -19 0 -25z m3350 -40 c-3
-8 -6 -5 -6 6 -1 11 2 17 5 13 3 -3 4 -12 1 -19z m-91 -81 c20 -11 19 -107 0
-107 -26 0 -44 29 -51 82 -3 29 -9 67 -12 83 -5 29 -5 29 22 -10 15 -22 34
-44 41 -48z m-1419 -14 c-2 -16 -4 -5 -4 22 0 28 2 40 4 28 2 -13 2 -35 0 -50z
m-367 43 c0 -2 -8 -10 -17 -17 -16 -13 -17 -12 -4 4 13 16 21 21 21 13z m500
-39 c0 -26 -6 -36 -25 -45 -14 -7 -34 -12 -43 -11 -9 0 -1 5 18 12 29 10 36
17 38 45 4 42 12 41 12 -1z m-1788 -48 c-1 -22 -3 -44 -6 -47 -3 -3 -6 19 -6
48 0 29 3 51 6 47 4 -3 6 -25 6 -48z m1402 -10 c-3 -8 -22 -27 -42 -44 l-37
-30 40 46 c41 46 50 53 39 28z m-146 -89 l-1 -35 -6 40 c-4 22 -10 51 -14 65
-5 20 -4 19 8 -5 8 -16 14 -46 13 -65z m57 14 c-3 -12 -14 -24 -25 -27 -16 -4
-18 -2 -10 13 6 10 10 32 10 48 0 16 3 32 7 36 10 10 24 -44 18 -70z m-2672
-4 c14 -11 30 -35 36 -53 12 -34 9 -283 -3 -294 -3 -4 -6 15 -6 41 l0 47 -35
-28 c-19 -15 -35 -34 -35 -40 0 -15 -17 -17 -22 -4 -1 5 -23 11 -48 12 -64 4
-87 17 -104 59 -11 29 -13 52 -6 98 10 76 14 81 79 137 60 51 101 58 144 25z
m4202 -146 c8 -83 15 -180 15 -215 0 -36 5 -70 11 -76 6 -6 9 -47 6 -109 -7
-163 -28 -458 -33 -463 -3 -3 -2 121 2 274 6 249 -1 468 -21 705 -3 30 -3 51
0 45 2 -5 11 -78 20 -161z m726 136 c24 -13 63 -89 84 -166 29 -103 31 -321 5
-524 -20 -160 -26 -186 -72 -300 -59 -150 -123 -262 -190 -336 -48 -51 -120
-112 -104 -86 4 7 22 65 41 129 18 65 34 111 34 103 0 -8 -11 -55 -24 -105
-13 -49 -23 -91 -21 -93 7 -7 76 60 98 96 32 52 125 289 155 397 20 71 26 121
30 241 6 161 1 198 -44 344 -23 74 -28 82 -35 60 -4 -15 -6 9 -3 60 3 47 5
109 5 138 0 54 6 60 41 42z m-2591 -154 c0 -2 -7 -7 -16 -10 -8 -3 -12 -2 -9
4 6 10 25 14 25 6z m-911 -68 c13 -35 38 -91 56 -125 18 -35 28 -60 23 -57 -5
3 -30 9 -55 12 -45 7 -47 8 -63 58 -27 77 -35 155 -19 165 26 16 34 9 58 -53z
m856 43 c-6 -5 -35 -17 -65 -26 -30 -10 -62 -20 -70 -23 -8 -3 -12 -2 -8 2 5
6 131 53 148 55 2 1 0 -3 -5 -8z m-421 -60 c33 -35 86 -44 86 -15 0 14 3 14
15 4 10 -8 30 -10 58 -7 32 5 36 4 19 -3 -13 -5 -69 -14 -125 -19 -89 -9 -104
-8 -117 6 -11 11 -11 14 -1 8 10 -6 13 1 9 33 -4 46 7 45 56 -7z m6 -61 c0 -5
-5 -10 -11 -10 -5 0 -7 5 -4 10 3 6 8 10 11 10 2 0 4 -4 4 -10z m-940 -54 c0
-2 -8 -10 -17 -17 -16 -13 -17 -12 -4 4 13 16 21 21 21 13z m295 -90 c-90 -29
-215 -89 -254 -122 -20 -16 -31 -21 -31 -12 0 7 -3 23 -6 36 -5 18 -2 22 15
22 12 0 32 5 43 11 18 10 20 9 15 -5 -5 -11 14 -6 66 21 75 38 168 71 202 72
11 0 -12 -10 -50 -23z m360 -53 c50 -18 91 -11 127 24 15 15 30 25 32 22 8 -9
-154 -138 -176 -141 -13 -1 -56 8 -96 21 -70 22 -72 24 -56 42 16 17 15 38 -2
83 -5 14 6 12 62 -10 38 -14 87 -32 109 -41z m-655 -97 c0 -2 -19 -16 -41 -31
-23 -15 -38 -22 -34 -15 4 6 21 20 39 31 32 20 36 21 36 15z m4209 -944 c7
-56 9 -111 6 -121 -11 -37 16 -241 45 -334 31 -98 34 -128 5 -50 -9 27 -31 76
-47 110 -35 73 -61 195 -82 381 -15 133 -15 133 14 344 37 261 37 309 0 163
-15 -60 -28 -108 -29 -105 -1 6 20 161 44 315 8 55 15 129 17 165 1 36 5 -122
8 -350 4 -228 13 -461 19 -518z m-1345 884 c42 -17 53 -48 31 -82 -23 -35 -59
-46 -137 -42 -76 4 -108 24 -108 69 0 36 27 52 105 60 33 3 64 7 68 7 4 1 23
-4 41 -12z m-2253 -105 c19 -16 22 -23 13 -38 -24 -40 -195 -72 -207 -38 -10
23 24 54 83 75 69 24 82 25 111 1z m-891 -91 c6 0 27 -17 48 -37 36 -35 38
-40 29 -73 -5 -19 -14 -78 -21 -130 l-12 -95 -44 -11 c-25 -6 -68 -14 -97 -17
l-52 -6 -7 37 c-17 84 -10 205 17 296 22 76 29 90 47 91 12 1 25 5 29 8 3 4
17 -9 30 -28 13 -19 28 -35 33 -35z m827 -57 c5 -15 -34 -36 -53 -29 -21 8
-17 25 9 36 26 10 39 8 44 -7z m-507 -101 c0 -10 -11 -33 -25 -52 -14 -19 -25
-38 -25 -43 0 -5 -9 -20 -20 -34 l-20 -26 0 71 c0 62 2 70 18 65 10 -2 26 5
36 16 23 26 36 27 36 3z m3787 -64 c-3 -8 -6 -5 -6 6 -1 11 2 17 5 13 3 -3 4
-12 1 -19z m-560 -40 c-3 -8 -6 -5 -6 6 -1 11 2 17 5 13 3 -3 4 -12 1 -19z
m550 0 c-3 -8 -6 -5 -6 6 -1 11 2 17 5 13 3 -3 4 -12 1 -19z m-10 -40 c-3 -8
-6 -5 -6 6 -1 11 2 17 5 13 3 -3 4 -12 1 -19z m-3105 -43 c0 -5 -5 -11 -11
-13 -6 -2 -11 4 -11 13 0 9 5 15 11 13 6 -2 11 -8 11 -13z m-387 -55 c3 -6 -1
-13 -10 -16 -19 -8 -30 0 -20 15 8 14 22 14 30 1z m2922 -102 c-3 -8 -6 -5 -6
6 -1 11 2 17 5 13 3 -3 4 -12 1 -19z m-3117 -33 c35 -51 106 -97 164 -105 21
-3 41 -10 43 -17 3 -9 -16 -12 -69 -12 -46 1 -87 -5 -110 -15 -21 -9 -51 -16
-68 -16 -17 0 -48 -9 -69 -20 -53 -27 -117 -36 -136 -20 -19 16 -99 7 -131
-15 -14 -9 -25 -11 -29 -5 -12 19 -25 10 -25 -17 -1 -26 -1 -27 -12 -8 -13 21
-78 228 -74 233 2 1 45 -18 97 -42 99 -47 179 -71 269 -82 45 -5 59 -3 78 13
l23 18 -22 30 -23 30 31 -29 c48 -43 60 -27 19 24 -20 25 -36 50 -36 57 0 9
36 43 47 43 1 0 16 -20 33 -45z m376 30 c-22 -16 -57 -21 -40 -6 7 8 29 15 54
20 3 0 -4 -6 -14 -14z m-86 -49 c-6 -8 -17 -13 -24 -10 -7 3 -19 -2 -26 -11
-14 -17 -30 -20 -30 -5 0 12 50 39 74 40 15 0 16 -3 6 -14z m2707 -138 c-3 -8
-6 -5 -6 6 -1 11 2 17 5 13 3 -3 4 -12 1 -19z m-2789 -104 c26 -46 -36 -110
-135 -141 -52 -16 -54 -16 -81 4 -59 44 -32 91 73 127 83 29 130 32 143 10z
m-588 -60 c0 -8 -4 -12 -10 -9 -5 3 -10 13 -10 21 0 8 5 12 10 9 6 -3 10 -13
10 -21z m3277 -236 c-3 -8 -6 -5 -6 6 -1 11 2 17 5 13 3 -3 4 -12 1 -19z m-37
-343 c-16 -60 -29 -99 -30 -85 0 20 -2 22 -11 10 -13 -18 -13 -20 31 103 19
53 36 93 37 89 2 -4 -11 -56 -27 -117z m-65 38 c-32 -80 -36 -86 -92 -124 -58
-41 -54 -30 6 16 42 32 54 49 77 111 16 40 30 71 32 69 3 -2 -8 -35 -23 -72z
m1182 -70 c-3 -10 -5 -2 -5 17 0 19 2 27 5 18 2 -10 2 -26 0 -35z m77 -25 c41
-141 181 -361 314 -495 49 -48 152 -151 230 -227 148 -145 211 -226 316 -410
141 -244 182 -346 217 -544 21 -119 21 -152 0 -80 -19 65 -79 173 -123 222
-39 45 -158 145 -317 267 -125 96 -301 268 -377 368 -98 130 -176 304 -218
491 -26 117 -71 460 -60 460 1 0 9 -24 18 -52z m351 -200 c22 -31 72 -94 111
-140 101 -119 165 -198 160 -198 -6 0 -249 286 -284 334 -31 42 -102 162 -102
173 0 4 17 -19 38 -52 20 -33 55 -86 77 -117z m-5435 45 c-12 -54 -26 -105
-30 -113 -5 -8 -4 -22 1 -32 7 -12 6 -18 -1 -18 -6 0 -8 -11 -4 -27 4 -22 3
-25 -5 -13 -9 12 -10 9 -5 -12 13 -56 -102 -355 -213 -554 -57 -104 -79 -133
-125 -170 -12 -10 -34 -39 -47 -64 -13 -25 -30 -52 -38 -60 -7 -8 25 59 72
150 164 314 259 524 327 718 31 90 77 264 79 297 0 11 3 14 6 8 2 -7 -5 -57
-17 -110z m3831 90 c-12 -20 -14 -14 -5 12 4 9 9 14 11 11 3 -2 0 -13 -6 -23z
m-151 2 c0 -2 -28 -23 -62 -46 -35 -23 -58 -36 -52 -30 10 11 105 79 112 80 1
1 2 -1 2 -4z m1390 -368 c25 -108 72 -252 104 -319 13 -26 21 -50 18 -53 -8
-8 -57 108 -89 208 -17 52 -33 85 -39 83 -16 -6 -33 89 -44 247 -14 197 -10
219 10 64 10 -75 28 -179 40 -230z m-3999 111 c72 -128 142 -250 155 -270 13
-20 21 -44 18 -53 -6 -16 23 -71 33 -61 3 3 -2 17 -11 32 -10 14 -16 28 -13
30 9 9 150 -230 211 -359 68 -143 84 -183 69 -174 -5 3 -15 24 -23 46 -7 23
-16 41 -19 41 -4 0 -13 20 -20 45 -7 24 -23 55 -35 67 -13 13 -35 44 -50 71
-16 26 -32 47 -36 47 -5 0 -25 30 -46 68 -88 158 -237 367 -254 357 -7 -4 -92
206 -86 212 2 2 18 -32 36 -74 38 -92 44 -101 35 -50 -5 24 -4 37 4 37 6 0 -1
21 -16 48 -14 26 -41 75 -60 110 -19 34 -32 62 -29 62 2 0 64 -105 137 -232z
m2702 115 c-175 -344 -222 -435 -228 -441 -13 -13 18 51 104 218 47 91 101
197 120 237 20 39 37 70 39 68 3 -2 -14 -39 -35 -82z m-273 22 c0 -2 -10 -9
-22 -15 -22 -11 -22 -10 -4 4 21 17 26 19 26 11z m-120 -69 c0 -2 -7 -7 -16
-10 -8 -3 -12 -2 -9 4 6 10 25 14 25 6z m2370 -337 c15 -28 5 -23 -15 7 -9 15
-12 23 -6 20 6 -4 16 -16 21 -27z m92 -119 c96 -111 334 -415 301 -385 -6 6
-46 53 -88 105 -43 52 -79 94 -81 93 -2 -2 -4 0 -3 3 0 4 -5 10 -13 15 -7 5
-13 13 -13 18 0 13 -29 51 -114 149 -39 45 -71 85 -71 89 0 4 4 3 8 -2 5 -6
38 -44 74 -85z m-2321 3 c-11 -21 -20 -35 -21 -31 0 12 33 78 38 74 2 -2 -6
-21 -17 -43z m1179 -43 c6 -11 8 -20 6 -20 -3 0 -10 9 -16 20 -6 11 -8 20 -6
20 3 0 10 -9 16 -20z m565 -150 c32 -46 50 -78 41 -71 -18 15 -106 145 -106
157 0 10 0 10 65 -86z m-2167 -22 c25 -38 94 -107 144 -143 26 -19 27 -22 17
-62 -7 -25 -16 -40 -22 -36 -6 4 -8 -2 -5 -15 4 -12 3 -20 -2 -17 -4 3 -18
-20 -30 -51 -13 -31 -48 -95 -78 -142 -30 -48 -88 -152 -128 -232 -41 -80 -97
-185 -124 -235 -61 -111 -143 -312 -134 -328 4 -7 -5 -1 -21 13 -15 14 -51 61
-80 105 -28 44 -75 109 -105 145 -115 142 -257 513 -277 726 -7 74 1 111 25
118 23 8 60 64 73 110 l10 37 28 -20 c41 -29 166 -61 241 -61 111 0 190 28
290 104 30 22 69 50 85 62 l30 21 19 -31 c10 -17 30 -48 44 -68z m1703 15 c13
-16 12 -17 -3 -4 -10 7 -18 15 -18 17 0 8 8 3 21 -13z m30 -40 c13 -16 12 -17
-3 -4 -10 7 -18 15 -18 17 0 8 8 3 21 -13z m-2527 -45 c-15 -49 -49 -67 -38
-20 9 37 13 42 30 42 11 0 13 -6 8 -22z m2561 2 c10 -11 16 -20 13 -20 -3 0
-13 9 -23 20 -10 11 -16 20 -13 20 3 0 13 -9 23 -20z m-4826 -57 c-17 -53 -13
-84 16 -110 30 -29 42 -29 66 0 10 12 18 17 19 11 0 -27 -36 -52 -83 -57 -40
-4 -52 -1 -68 17 -27 28 -21 67 21 135 37 59 48 61 29 4z m1381 27 c6 -11 8
-20 6 -20 -3 0 -10 9 -16 20 -6 11 -8 20 -6 20 3 0 10 -9 16 -20z m797 -158
c3 -114 7 -151 29 -222 110 -364 220 -567 420 -779 l64 -68 -58 -10 c-99 -17
-361 -99 -512 -160 -150 -61 -269 -124 -323 -173 l-31 -27 -38 46 c-60 72
-123 170 -156 241 -30 65 -30 66 -17 140 7 41 18 87 23 101 6 14 17 64 26 111
9 47 33 126 54 176 l38 92 22 -30 c15 -19 22 -44 22 -72 1 -124 75 -481 137
-655 l14 -43 50 25 c27 14 49 28 49 30 0 3 -20 74 -44 158 -72 249 -81 306
-80 522 0 190 16 331 48 435 8 25 17 56 20 70 3 16 47 61 116 120 60 52 110
98 110 102 0 5 3 8 8 8 4 0 8 -62 9 -138z m1113 67 c-9 -35 -15 -47 -21 -38
-11 21 10 114 23 101 7 -7 6 -27 -2 -63z m66 46 c-5 -18 -2 -25 9 -25 9 0 15
-9 15 -21 0 -13 8 -23 21 -26 14 -4 19 -12 16 -24 -3 -11 -1 -17 4 -14 4 3 3
-8 -2 -25 -12 -34 -24 -41 -16 -9 5 19 4 20 -12 5 -22 -20 -45 -20 -61 0 -11
12 -10 28 4 90 10 41 20 74 23 74 3 0 2 -11 -1 -25z m1689 -205 c10 -11 16
-20 13 -20 -3 0 -13 9 -23 20 -10 11 -16 20 -13 20 3 0 13 -9 23 -20z m-1601
-78 c-15 -50 -15 -103 0 -177 6 -28 5 -27 -8 5 -19 47 -19 115 0 179 8 29 17
51 19 49 2 -2 -3 -27 -11 -56z m1637 31 c13 -16 12 -17 -3 -4 -10 7 -18 15
-18 17 0 8 8 3 21 -13z m-1801 -91 c0 -61 58 -211 111 -288 27 -40 29 -49 29
-134 0 -148 62 -302 145 -359 18 -12 62 -27 97 -33 89 -14 160 2 233 53 31 21
61 36 67 33 6 -4 8 -22 5 -43 -5 -35 -5 -34 18 14 40 85 28 44 -30 -100 -30
-75 -74 -168 -98 -205 l-44 -69 -144 71 c-173 85 -331 139 -520 178 -132 28
-174 40 -137 40 9 0 18 12 21 28 3 16 28 90 56 164 28 75 63 180 80 235 36
124 91 365 91 404 0 16 5 29 10 29 6 0 10 -8 10 -18z m2560 -79 c0 -2 -18 10
-40 27 -22 17 -40 34 -40 37 0 2 18 -10 40 -27 22 -17 40 -34 40 -37z m-389
-150 c13 -16 12 -17 -3 -4 -10 7 -18 15 -18 17 0 8 8 3 21 -13z m-1738 -152
c21 -7 56 -14 78 -16 23 -1 46 -8 52 -14 26 -26 -143 19 -224 60 -32 16 -60
32 -63 37 -3 5 23 -5 57 -22 34 -17 79 -37 100 -45z m-25 -161 c45 -19 107
-36 158 -43 65 -9 85 -15 90 -29 8 -26 0 -33 -74 -75 -61 -35 -74 -38 -142
-38 -62 0 -81 4 -106 22 -44 32 -67 86 -72 168 -3 54 -9 76 -26 94 -11 14 6 4
39 -21 33 -25 93 -60 133 -78z m692 -42 c119 -76 320 -243 320 -266 0 -3 -24
16 -52 44 -86 83 -166 145 -291 224 -64 41 -119 81 -122 88 -3 8 7 4 23 -8 15
-11 70 -48 122 -82z m-1460 -28 c-6 -11 -13 -20 -16 -20 -2 0 0 9 6 20 6 11
13 20 16 20 2 0 0 -9 -6 -20z m-37 -62 c-33 -57 -35 -68 -10 -59 26 9 38 8 55
-2 7 -5 14 -2 18 7 13 34 26 15 19 -26 -4 -24 -8 -51 -8 -61 -1 -16 -7 -17
-37 -12 -19 4 -57 11 -85 15 -27 4 -43 8 -34 9 9 0 25 13 35 29 17 26 17 26
-1 12 -15 -13 -14 -8 5 30 27 53 50 90 57 90 3 0 -4 -15 -14 -32z m-63 14 c0
-5 -7 -17 -15 -28 -14 -18 -14 -17 -4 9 12 27 19 34 19 19z m1868 -109 c13
-24 2 -32 -16 -10 -15 18 -25 84 -16 99 6 9 11 0 14 -27 4 -22 12 -50 18 -62z"/>
<path d="M5870 6550 c0 -5 5 -10 10 -10 6 0 10 5 10 10 0 6 -4 10 -10 10 -5 0
-10 -4 -10 -10z"/>
<path d="M5598 5395 c-59 -66 -123 -126 -143 -137 -11 -5 -4 4 15 20 l35 31
-50 -15 c-27 -8 -76 -28 -108 -45 -38 -19 -108 -41 -195 -60 -157 -33 -209
-49 -309 -94 -116 -53 -214 -115 -278 -175 -82 -77 -144 -126 -250 -197 -129
-88 -217 -127 -286 -128 -53 -1 -70 -8 -126 -55 -19 -16 -16 -47 8 -69 42 -39
137 -35 183 8 20 18 25 19 91 7 131 -25 157 -27 149 -15 -4 7 0 9 12 6 258
-77 499 -74 659 6 150 74 227 141 314 269 41 61 134 268 161 357 17 58 24 70
46 75 28 7 140 113 130 123 -3 3 4 21 15 39 47 77 -11 116 -73 49z m-188 -160
c0 -2 -13 -11 -30 -20 -38 -19 -40 -11 -2 9 31 17 32 18 32 11z m-60 -104 c0
-27 -74 -106 -144 -154 -33 -23 -122 -73 -196 -112 -74 -39 -169 -91 -210
-115 -73 -42 -321 -141 -350 -139 -13 0 -13 1 0 6 24 10 100 75 112 96 9 18 8
19 -13 13 -13 -4 -33 -9 -44 -11 -11 -2 -62 -31 -113 -65 -52 -34 -96 -60 -99
-57 -3 3 8 12 24 20 15 8 87 57 158 107 232 165 411 261 632 339 33 12 96 37
140 56 90 40 103 42 103 16z m-965 -541 c-3 -5 -18 -9 -33 -9 l-27 1 30 8 c17
4 31 8 33 9 2 0 0 -3 -3 -9z"/>
<path d="M3710 6140 c0 -5 5 -10 10 -10 6 0 10 5 10 10 0 6 -4 10 -10 10 -5 0
-10 -4 -10 -10z"/>
<path d="M3312 5184 c10 -10 20 -15 24 -12 3 4 -5 12 -18 18 -22 12 -22 12 -6
-6z"/>
<path d="M2037 3473 c-26 -54 -38 -87 -27 -73 30 37 82 139 78 157 -2 8 -25
-30 -51 -84z"/>
<path d="M4465 2496 c-33 -33 -46 -85 -52 -211 -6 -121 7 -195 51 -292 32 -69
91 -103 65 -37 -20 50 -29 252 -16 349 7 55 35 125 49 125 5 0 11 -14 15 -31
4 -20 10 -28 19 -25 8 3 20 -1 26 -10 7 -8 19 -21 25 -29 7 -7 34 -53 59 -102
45 -85 73 -127 81 -120 6 7 -49 161 -89 247 -44 96 -59 115 -110 141 -51 26
-94 24 -123 -5z"/>
<path d="M6256 2015 c-9 -26 -7 -32 5 -12 6 10 9 21 6 23 -2 3 -7 -2 -11 -11z"/>
<path d="M7340 7213 c0 -5 5 -15 10 -23 8 -12 10 -11 10 8 0 12 -4 22 -10 22
-5 0 -10 -3 -10 -7z"/>
</g>
</svg>
